<?xml version="1.0" encoding="UTF-8" standalone="no"?>
<!-- Created with Inkscape (http://www.inkscape.org/) -->

<svg
   version="1.1"
   id="svg1"
   width="326.17334"
   height="330.33334"
   viewBox="0 0 326.17334 330.33334"
   sodipodi:docname="SV_Holm_Seppensen_Logo.eps"
   xmlns:inkscape="http://www.inkscape.org/namespaces/inkscape"
   xmlns:sodipodi="http://sodipodi.sourceforge.net/DTD/sodipodi-0.dtd"
   xmlns="http://www.w3.org/2000/svg"
   xmlns:svg="http://www.w3.org/2000/svg">
  <defs
     id="defs1" />
  <sodipodi:namedview
     id="namedview1"
     pagecolor="#ffffff"
     bordercolor="#000000"
     borderopacity="0.25"
     inkscape:showpageshadow="2"
     inkscape:pageopacity="0.0"
     inkscape:pagecheckerboard="0"
     inkscape:deskcolor="#d1d1d1">
    <inkscape:page
       x="0"
       y="0"
       inkscape:label="1"
       id="page1"
       width="326.17334"
       height="330.33334"
       margin="0"
       bleed="0" />
  </sodipodi:namedview>
  <g
     id="g1"
     inkscape:groupmode="layer"
     inkscape:label="1">
    <g
       id="group-R5">
      <path
         id="path2"
         d="m 2446.3,1905.97 -16.03,17.77 c -147.42,163.43 -516.37,524.47 -519.73,527.89 l -14.64,14.85 -14.89,-14.57 c -0.54,-0.52 -40.39,-52.72 -148.29,-104.23 -99.6,-47.54 -266.83,-104.22 -497.91,-104.22 -231.4,0 -407.412,59.8 -514.322,109.96 -115.968,54.41 -163.816,109.57 -164.418,110.11 l -15.461,13.96 -14.031,-15.5 L 18.1211,1918.27 0,1898.12 22.9688,1884.2 c 0.6796,-0.42 83.4722,-57.14 146.9022,-179.76 C 228.84,1590.45 281,1438.98 262.211,1094.5 245.309,773.898 380.84,584.699 479.68,482.43 587.262,371.121 692.941,352.18 702.66,349.43 l 3.531,-0.739 C 861.512,311.602 969.801,261.09 1088.75,167.609 1168.55,97.9805 1205.38,32.6016 1205.74,31.9492 L 1223.39,0 l 18.84,31.2617 c 1.43,2.3867 146.05,253.1793 335.52,278.9683 221.97,30.219 384.5,115.731 483.06,282.122 102.63,173.277 118.58,345.617 112.97,577.768 -6.78,280.06 61.58,569.54 253.83,721.11 l 18.69,14.74"
         style="fill:#ffffff;fill-opacity:1;fill-rule:nonzero;stroke:none"
         transform="matrix(0.13333333,0,0,-0.13333333,0,330.33333)" />
      <path
         id="path3"
         d="m 2387.71,1908.57 -15.53,16.64 c -142.78,152.97 -465.81,471.02 -469.06,474.21 l -14.18,13.91 -14.43,-13.64 c -0.51,-0.49 -52.84,-49.35 -157.35,-97.56 -96.46,-44.51 -258.43,-97.56 -482.25,-97.56 -224.12,0 -394.597,55.98 -498.137,102.93 -112.332,50.93 -172.402,102.56 -172.98,103.06 l -14.98,13.07 -13.59,-14.51 -458.1527,-489.04 -17.539,-18.86 22.2421,-13.03 C 82.4414,1887.8 148.891,1847.97 210.32,1733.2 267.441,1626.5 331.691,1431.65 313.492,1109.21 297.121,809.121 407.801,632.012 503.531,536.289 607.723,432.102 710.082,401.109 719.504,398.531 l 3.406,-0.691 C 873.352,363.121 978.23,329.109 1093.44,241.602 1170.73,176.43 1206.4,115.23 1206.75,114.621 l 17.1,-29.9022 18.25,29.2612 c 1.39,2.231 141.46,223.719 324.97,247.86 214.99,28.289 372.4,121.59 467.86,277.34 99.41,162.191 101.13,303.609 95.69,520.91 -6.56,262.14 52.78,592.81 238.99,734.69 l 18.1,13.79"
         style="fill:#ffffff;fill-opacity:1;fill-rule:nonzero;stroke:none"
         transform="matrix(0.13333333,0,0,-0.13333333,0,330.33333)" />
      <path
         id="path4"
         d="m 719.504,398.531 c -9.422,2.578 -111.781,33.571 -215.973,137.758 -95.73,95.731 -206.41,272.832 -190.039,572.921 18.199,322.44 -46.051,517.3 -103.172,623.99 -61.429,114.77 -127.8786,154.61 -128.5466,155 l -22.2421,13.03 17.539,18.86 458.1597,489.04 13.59,14.5 14.973,-13.06 c 0.578,-0.5 60.648,-52.14 172.98,-103.07 103.547,-46.95 274.017,-102.92 498.137,-102.92 223.82,0 385.79,53.05 482.26,97.55 104.5,48.21 156.83,97.07 157.34,97.56 l 14.43,13.64 14.18,-13.9 c 3.25,-3.2 326.29,-321.25 469.06,-474.22 l 15.53,-16.64 -18.1,-13.79 C 2183.4,1752.9 2124.06,1422.24 2130.62,1160.1 2136.06,942.789 2134.34,801.379 2034.94,639.18 1939.47,483.441 1782.06,390.129 1567.07,361.84 1383.56,337.699 1243.49,116.219 1242.1,113.98 l -18.25,-29.2495 -17.09,29.8985 c -0.36,0.609 -36.03,61.812 -113.32,126.98 -115.198,87.5 -220.088,121.52 -370.53,156.231 m 6.692,40.68 c 282.368,-53 441.108,-196.149 495.238,-276.629 45.19,63.16 172.1,219.097 336.85,240.781 202.08,26.59 349.48,113.406 438.13,258.027 93.35,152.321 94.88,288.602 89.63,498.361 -1.97,78.82 0.75,235.17 41.15,396.74 40.17,160.66 106.16,280.78 196.32,357.46 -130.61,138.36 -378.74,383.85 -439.18,443.5 -56.31,-45.74 -267.88,-193.36 -652.83,-193.36 -387.769,0 -621.949,157.19 -682.68,203.64 L 123.301,1909.2 C 189.563,1856.99 385.543,1654.82 354.613,1106.93 342.191,879.129 401.602,697.422 531.191,566.871 621.57,475.82 704.41,443.629 729.602,438.52"
         style="fill:#2e2a2b;fill-opacity:1;fill-rule:nonzero;stroke:none"
         transform="matrix(0.13333333,0,0,-0.13333333,0,330.33333)" />
      <path
         id="path5"
         d="m 2042.36,2134.49 c 0,0 -87.87,87.87 -155.91,155.91 -161.57,-104.89 -700.15,-354.33 -1326.606,11.33 -99.211,-107.71 -374.172,-399.68 -374.172,-399.68 0,0 189.922,-141.73 218.262,-569.76 19.847,-221.11 -73.7,-439.38 130.398,-705.829 20.25,20.258 61.711,61.711 118.141,118.141 -111.121,134.019 -177.95,306.088 -177.95,493.788 0,427.58 346.629,774.21 774.207,774.21 187.7,0 359.77,-66.83 493.8,-177.94 176.43,176.43 299.83,299.83 299.83,299.83"
         style="fill:#2e2a2b;fill-opacity:1;fill-rule:nonzero;stroke:none"
         transform="matrix(0.13333333,0,0,-0.13333333,0,330.33333)" />
      <path
         id="path6"
         d="m 1248.74,503.422 c 405.92,0 734.98,329.058 734.98,734.978 0,405.92 -329.06,734.98 -734.98,734.98 -405.924,0 -734.982,-329.06 -734.982,-734.98 0,-405.92 329.058,-734.978 734.982,-734.978"
         style="fill:#2e2a2b;fill-opacity:1;fill-rule:nonzero;stroke:none"
         transform="matrix(0.13333333,0,0,-0.13333333,0,330.33333)" />
      <path
         id="path7"
         d="m 723.527,1128.56 c 0,33.75 -16.726,45.38 -43.398,61.55 l -13.609,8.23 c -15.602,9.36 -29.219,18.15 -29.219,34.6 0,14.47 8.508,24.11 23.539,24.11 19.008,0 22.41,-12.48 22.41,-27.51 v -5.11 h 37.73 v 7.94 c 0,38.86 -20.992,52.48 -58.429,52.48 -36.883,0 -63.543,-15.04 -63.543,-55.03 0,-32.05 17.59,-44.81 40.281,-59 l 15.602,-9.65 c 17.578,-10.77 30.347,-18.14 30.347,-35.73 0,-16.45 -9.078,-25.81 -25.527,-25.81 -22.691,0 -24.961,17.58 -24.961,35.45 v 2.56 h -38.582 v -2.27 c 0,-45.95 16.461,-63.54 63.262,-63.54 37.718,0 64.097,14.47 64.097,56.73 m 128.942,-52.76 v 28.37 h -71.758 v 64.67 h 64.379 v 27.79 h -64.379 v 55.88 h 69.488 v 28.37 H 742.98 V 1075.8 Z m 143.969,146.65 c 0,44.81 -20.708,58.43 -63.54,58.43 h -60.98 V 1075.8 h 38.012 v 85.95 h 17.578 c 40.851,0 68.93,6.23 68.93,60.7 m -38.008,-0.29 c 0,-26.38 -11.629,-32.62 -36.02,-32.62 h -12.48 v 63.54 h 13.609 c 22.981,0 34.891,-5.96 34.891,-30.92 m 180.28,0.29 c 0,44.81 -20.71,58.43 -63.54,58.43 h -60.98 V 1075.8 h 38.01 v 85.95 h 17.58 c 40.85,0 68.93,6.23 68.93,60.7 m -38.01,-0.29 c 0,-26.38 -11.63,-32.62 -36.02,-32.62 h -12.48 v 63.54 h 13.61 c 22.98,0 34.89,-5.96 34.89,-30.92 m 165.24,-146.36 v 28.37 h -71.76 v 64.67 h 64.39 v 27.79 h -64.39 v 55.88 h 69.49 v 28.37 H 1156.46 V 1075.8 Z m 158.73,0 v 205.08 h -33.47 v -171.89 l -48.79,171.89 H 1285.4 V 1075.8 h 33.47 v 171.89 l 48.78,-171.89 z m 147.37,52.76 c 0,33.75 -16.73,45.38 -43.4,61.55 l -13.61,8.23 c -15.6,9.36 -29.22,18.15 -29.22,34.6 0,14.47 8.51,24.11 23.55,24.11 19,0 22.4,-12.48 22.4,-27.51 v -5.11 h 37.73 v 7.94 c 0,38.86 -20.99,52.48 -58.43,52.48 -36.88,0 -63.54,-15.04 -63.54,-55.03 0,-32.05 17.59,-44.81 40.28,-59 l 15.6,-9.65 c 17.59,-10.77 30.35,-18.14 30.35,-35.73 0,-16.45 -9.08,-25.81 -25.53,-25.81 -22.69,0 -24.96,17.58 -24.96,35.45 v 2.56 h -38.57 v -2.27 c 0,-45.95 16.45,-63.54 63.25,-63.54 37.72,0 64.1,14.47 64.1,56.73 m 128.94,-52.76 v 28.37 h -71.76 v 64.67 h 64.38 v 27.79 h -64.38 v 55.88 h 69.49 v 28.37 H 1591.49 V 1075.8 Z m 158.72,0 v 205.08 h -33.47 v -171.89 l -48.79,171.89 h -57.01 V 1075.8 h 33.47 v 171.89 l 48.79,-171.89 h 57.01"
         style="fill:#ffffff;fill-opacity:1;fill-rule:nonzero;stroke:none"
         transform="matrix(0.13333333,0,0,-0.13333333,0,330.33333)" />
      <path
         id="path8"
         d="m 1048.96,1317.73 v 205.07 h -38.01 v -84.52 h -53.887 v 84.52 h -38.012 v -205.07 h 38.012 v 92.75 h 53.887 v -92.75 z m 161.39,99.84 c 0,64.96 -0.57,109.21 -68.64,109.21 -66.37,0 -68.36,-46.52 -68.36,-109.49 0,-59.57 2.84,-103.53 67.22,-103.53 67.79,0 69.78,44.53 69.78,103.81 m -38.86,5.39 c 0,-51.62 -0.28,-81.4 -29.78,-81.4 -29.78,0 -30.07,28.64 -30.07,79.98 0,43.68 0,77.44 30.07,77.44 30.06,0 29.78,-31.77 29.78,-76.02 m 165.08,-105.23 v 28.36 h -63.82 v 176.71 h -38.01 v -205.07 z m 211.31,0 v 205.07 h -62.12 l -34.88,-164.23 -35.46,164.23 h -62.12 v -205.07 h 33.76 v 179.83 l 42.26,-179.83 h 39.71 l 42.26,179.83 v -179.83 h 36.59"
         style="fill:#ffffff;fill-opacity:1;fill-rule:nonzero;stroke:none"
         transform="matrix(0.13333333,0,0,-0.13333333,0,330.33333)" />
      <path
         id="path9"
         d="m 1222.69,1609.86 c 0,34.89 -17.59,45.1 -43.4,60.98 l -10.21,6.25 c -19.29,11.62 -32.05,19.86 -32.05,41.7 0,19 11.06,30.62 30.07,30.62 23.82,0 29.49,-13.05 29.49,-32.32 v -4.82 h 24.4 v 6.8 c 0,34.88 -19.29,49.63 -53.04,49.63 -32.62,0 -55.88,-17.02 -55.88,-51.34 0,-32.61 18.44,-45.09 42.83,-60.13 l 11.63,-7.09 c 19.57,-11.91 31.2,-19.85 31.2,-41.98 0,-20.41 -9.08,-33.18 -31.2,-33.18 -26.66,0 -32.34,17.29 -32.34,40 v 2.25 h -24.96 v -2.25 c 0,-40 16.17,-59.3 57.3,-59.3 33.75,0 56.16,17.87 56.16,54.18 m 143.8,154.87 h -23.82 l -43.97,-182.66 -43.11,182.66 h -25.53 l 53.33,-205.07 h 28.93 l 54.17,205.07"
         style="fill:#ffffff;fill-opacity:1;fill-rule:nonzero;stroke:none"
         transform="matrix(0.13333333,0,0,-0.13333333,0,330.33333)" />
      <path
         id="path10"
         d="m 1032.03,761.191 c -0.48,6.418 -0.59,12.731 -0.59,19.149 v 22.121 c 0,13.449 -3.93,19.988 -18.2,19.988 -10.58,0 -19.74,-4.168 -19.74,-15.82 v -0.598 h 9.39 v 0.598 c -0.01,5.953 4.51,9.043 9.98,9.043 9.28,0 9.28,-7.852 9.28,-14.992 v -2.621 c -15.23,-0.11 -30.931,-1.297 -30.931,-20.219 0,-9.871 4.761,-17.719 15.471,-17.719 7.49,0 11.9,2.848 16.06,8.93 l 0.12,-7.86 z m -9.88,23.188 c 0,-7.719 -2.49,-17.238 -12.37,-17.238 -6.66,0 -8.81,5.699 -8.81,11.531 0,11.066 9.4,12.84 18.81,12.84 h 2.37 z m 34.4,62.82 h -9.4 v -86.008 h 9.4 z m 49.11,-69.59 c 0,10.11 -6.77,13.922 -14.27,17.95 l -2.85,1.55 c -5.36,2.852 -9.05,5.59 -9.05,10.59 0,4.883 3.1,8.211 7.98,8.211 5.71,0 7.61,-3.09 8.2,-7.379 0.12,-1.179 0.24,-2.5 0.24,-3.801 h 9.4 c 0,1.668 -0.12,3.329 -0.36,4.75 -1.43,9.04 -6.66,12.969 -17.01,12.969 -10.11,0 -17.84,-4.879 -17.84,-15.59 0,-9.031 5.23,-12.359 12.13,-16.039 l 3.09,-1.679 c 6.9,-3.68 10.83,-5.821 10.83,-13.071 0,-5.832 -3.09,-9.281 -9.04,-9.281 -6.19,0 -8.33,3.68 -8.81,9.402 -0.11,0.95 -0.11,2.258 -0.11,3.321 h -9.4 c 0,-1.543 0,-3.09 0.12,-4.16 0.83,-10.223 6.78,-15.332 17.96,-15.332 11.54,0 18.79,5.582 18.79,17.589 z m 84,4.629 c 0,14.641 -7.37,18.922 -18.2,25.582 l -4.28,2.61 c -8.09,4.871 -13.45,8.32 -13.45,17.492 0,7.957 4.64,12.84 12.62,12.84 9.99,0 12.37,-5.473 12.37,-13.563 v -2.027 h 10.23 v 2.848 c 0,14.64 -8.09,20.82 -22.25,20.82 -13.68,0 -23.43,-7.129 -23.43,-21.52 0,-13.679 7.73,-18.91 17.96,-25.211 l 4.88,-2.98 c 8.21,-4.988 13.09,-8.32 13.09,-17.59 0,-8.57 -3.81,-13.91 -13.09,-13.91 -11.19,0 -13.57,7.242 -13.57,16.762 v 0.949 h -10.46 v -0.942 c 0,-16.769 6.78,-24.867 24.03,-24.867 14.16,0 23.55,7.5 23.55,22.731 z m 63.89,64.961 h -9.99 l -18.44,-76.609 -18.08,76.609 h -10.71 l 22.37,-86.008 h 12.13 z m 87.19,-86.008 v 86.008 h -10.1 v -37.59 h -29.04 v 37.59 h -10.1 v -86.008 h 10.1 v 40.34 h 29.04 v -40.34 z m 56.88,30.321 c 0,18.207 -1.43,30.937 -20.34,30.937 -19.14,0 -21.4,-14.519 -21.4,-31.758 0,-18.453 1.9,-30.82 20.68,-30.82 18.08,0 21.06,11.899 21.06,31.641 m -9.76,-6.422 c 0,-8.199 -0.71,-18.32 -11.18,-18.32 -11.06,0 -11.18,10.589 -11.18,18.679 v 8.563 c 0,8.34 -0.35,21.66 11.54,21.66 11.3,0 10.82,-12.371 10.82,-21.41 z m 32.73,62.109 h -9.4 v -86.008 h 9.4 z m 81.97,-86.008 v 40.789 c 0,13.219 -3.33,20.469 -14.75,20.469 -7.14,0 -12.14,-4.398 -14.87,-9.168 -1.55,4.52 -4.17,9.168 -13.33,9.168 -6.42,0 -11.54,-4.039 -14.15,-9.168 v 7.86 h -9.4 c 0.36,-3.45 0.47,-6.911 0.47,-10.36 v -49.59 h 9.4 v 36.758 c 0,9.031 3.1,17.25 10.71,17.25 8.45,0 8.21,-7.5 8.21,-13.219 v -40.789 h 9.4 v 37.707 c 0,7.012 1.78,16.301 10.59,16.301 7.97,0 8.32,-7.14 8.32,-13.687 v -40.321 h 9.4"
         style="fill:#ffffff;fill-opacity:1;fill-rule:nonzero;stroke:none"
         transform="matrix(0.13333333,0,0,-0.13333333,0,330.33333)" />
      <path
         id="path11"
         d="m 956.539,961.379 v 1.191 c 0,15.461 -7.141,23.551 -24.027,23.551 -25.09,0 -26.871,-19.742 -26.871,-45.199 0,-25.442 1.187,-44.113 27.699,-44.113 7.379,0 15.59,1.543 22.488,3.921 v 42.809 h -24.75 v -7.969 h 14.871 v -28.179 c -4.039,-1.782 -8.558,-2.493 -12.84,-2.493 -17.371,0 -17.007,16.641 -17.007,36.622 0,18.55 0,36.511 16.527,36.511 10.23,0 13.562,-6.179 13.562,-15.101 v -1.551 z m 53.181,-34.238 v 2.73 c 0,14.508 -0.47,29.848 -19.74,29.848 -20.449,0 -21.289,-17.598 -21.289,-33.66 0,-15.707 2.258,-28.911 20.571,-28.911 14.628,0 19.628,7.852 20.108,20.102 h -9.28 c -0.238,-7.02 -1.91,-13.211 -10.828,-13.211 -10.114,0 -10.942,9.172 -10.942,19.051 v 4.051 z m -9.51,6.41 h -21.89 c 0,2.738 0.239,5.238 0.481,7.73 0.828,6.668 3.558,11.66 11.058,11.66 7.129,0 9.512,-5.589 10.11,-11.769 0.241,-2.621 0.241,-5.121 0.241,-7.621 m 62.34,24.859 h -9.39 v -7.019 c -3.1,5.828 -7.14,8.328 -14.4,8.328 -16.29,0 -18.2,-16.649 -18.2,-31.879 0,-13.328 1.31,-28.68 18.08,-28.68 6.19,0 10.23,1.91 13.92,7.031 v -8.222 c 0,-9.641 -1.31,-16.66 -11.3,-16.66 -7.14,0.011 -9.29,4.531 -9.29,10.953 h -9.98 c 0.12,-12.133 6.54,-17.371 18.79,-17.371 14.87,0 21.41,6.187 21.41,20.937 v 52.594 c 0,3.328 0.36,6.777 0.36,9.988 m -9.75,-28.07 c 0,-9.051 0.36,-24.629 -12.02,-24.629 -10.35,0 -10.59,12.25 -10.59,22.129 0,10.82 0.12,24.859 11.19,24.859 10.83,0 11.42,-12.371 11.42,-22.359 z m 50.19,20.211 v 9.039 h -0.95 c -6.78,0 -12.02,-3.09 -15.23,-9.039 l 0.01,7.859 h -9.27 c 0.24,-2.621 0.36,-8.211 0.36,-10.941 v -49.008 h 9.51 v 37.109 c -0.01,8.789 4.15,15.211 13.55,15.211 0.71,0 1.31,-0.109 2.02,-0.23 m 50.21,-52.09 c -0.36,4.398 -0.48,8.68 -0.48,13.199 v 46.75 h -9.51 v -36.398 c 0,-8.082 -1.66,-17.481 -11.77,-17.481 -9.4,0 -9.52,8.571 -9.52,15.578 v 38.301 h -9.4 v -42.461 c 0,-11.058 4.28,-18.551 16.06,-18.551 6.78,0 11.66,3.09 15.11,8.68 l 0.12,-7.617 z m -6.67,85.168 h -9.04 v -11.41 h 9.04 z m -18.67,0 h -8.92 v -11.41 h 8.92 z m 81.02,-85.168 v 42.59 c 0,11.301 -3.81,18.668 -15.82,18.668 -7.61,0 -12.97,-4.52 -15.58,-9.52 v 8.211 h -9.28 c 0.36,-4.398 0.47,-8.68 0.47,-13.082 v -46.867 h 9.4 V 934.5 c 0,8.09 3.33,18.082 12.13,18.082 9.4,0 9.28,-8.562 9.28,-15.82 v -38.301 z m 55.43,0 c -0.12,2.859 -0.48,8.449 -0.48,11.301 v 74.707 h -9.51 v -31.758 c -2.97,4.629 -6.66,7.008 -13.56,7.008 -15.93,0 -18.31,-15.699 -18.31,-30.449 0,-14.629 1.31,-31.879 18.55,-31.879 6.54,0 10.46,2.5 14.03,7.98 l 0.12,-6.91 z m -9.63,29.379 c 0,-11.168 -0.48,-23.418 -11.78,-23.418 -9.39,0 -10.82,11.406 -10.82,24.617 0,10.699 0.59,23.789 11.18,23.789 10.58,0 11.42,-11.656 11.42,-24.976 z m 63.77,-0.699 v 2.73 c 0,14.508 -0.48,29.848 -19.75,29.848 -20.45,0 -21.28,-17.598 -21.28,-33.66 0,-15.707 2.25,-28.911 20.57,-28.911 14.63,0 19.62,7.852 20.1,20.102 h -9.28 c -0.24,-7.02 -1.9,-13.211 -10.82,-13.211 -10.12,0 -10.95,9.172 -10.95,19.051 v 4.051 z m -9.52,6.41 h -21.89 c 0,2.738 0.24,5.238 0.48,7.73 0.83,6.668 3.57,11.66 11.06,11.66 7.14,0 9.52,-5.589 10.11,-11.769 0.24,-2.621 0.24,-5.121 0.24,-7.621 m 45.93,-35.09 v 7.379 c -1.54,-0.238 -2.97,-0.469 -4.28,-0.469 -5.12,0 -6.79,1.66 -6.79,8.438 v 37.711 h 10.71 v 6.89 h -10.71 v 15.231 l -9.39,-4.161 v -11.07 h -8.93 v -6.89 h 8.93 v -38.782 c 0,-10.468 2.26,-14.867 13.56,-14.867 2.26,0 4.64,0.238 6.9,0.59 m 64.94,0 v 86.008 h -8.8 c -3.57,-4.52 -9.99,-9.879 -14.87,-12.969 v -10.109 c 4.99,3.211 9.63,6.781 13.8,11.058 v -73.988 z m 65.33,40.801 v 12.488 c 0,19.27 -1.91,34.141 -20.82,34.141 -16.89,0 -21.53,-12.012 -21.53,-27.36 0,-14.511 2.73,-26.871 18.32,-26.871 6.78,0 11.06,2.61 14.51,7.121 v -4.043 c 0,-20.328 -2.26,-30.316 -11.9,-30.316 -7.97,0 -9.87,5.226 -9.87,12.719 h -9.87 c 0.12,-13.68 5.82,-20.219 19.39,-20.219 19.74,0 21.77,15.816 21.77,42.34 m -9.63,20.34 c 0,-9.403 -0.84,-20.582 -12.02,-20.582 -9.52,0 -10.71,9.16 -10.71,19.511 0,9.75 1.07,19.867 11.42,19.867 9.76,0 11.31,-9.398 11.31,-18.796 m 66.12,-40.211 v 7.488 h -9.16 v 57.59 h -13.31 l -23.68,-55.797 v -9.281 h 27.72 v -20.93 h 9.27 v 20.93 z m -18.31,7.488 h -20.1 l 20.1,49.019 z m 69.37,12.383 v 12.488 c 0,19.27 -1.91,34.141 -20.82,34.141 -16.89,0 -21.53,-12.012 -21.53,-27.36 0,-14.511 2.73,-26.871 18.32,-26.871 6.78,0 11.06,2.61 14.51,7.121 v -4.043 c 0,-20.328 -2.26,-30.316 -11.9,-30.316 -7.97,0 -9.87,5.226 -9.87,12.719 h -9.87 c 0.12,-13.68 5.82,-20.219 19.39,-20.219 19.74,0 21.77,15.816 21.77,42.34 m -9.64,20.34 c 0,-9.403 -0.83,-20.582 -12.01,-20.582 -9.52,0 -10.71,9.16 -10.71,19.511 0,9.75 1.07,19.867 11.42,19.867 9.76,0 11.3,-9.398 11.3,-18.796"
         style="fill:#ffffff;fill-opacity:1;fill-rule:nonzero;stroke:none"
         transform="matrix(0.13333333,0,0,-0.13333333,0,330.33333)" />
    </g>
  </g>
</svg>
